<?xml version="1.0" encoding="UTF-8"?><svg id="LOGO_4" xmlns="http://www.w3.org/2000/svg" width="3102.43" height="506.31" viewBox="0 0 3102.43 506.31"><defs><style>.cls-1{fill:none;}.cls-2{fill:#fff7ec;opacity:.54;}.cls-3{fill:#ffce8a;}.cls-4{fill:#ff5900;}</style></defs><g id="sol"><path class="cls-3" d="M1688.13,237.44c9.17-.18,32.07-2.8,38.84,2.31,4.94,3.72,4.15,12.43.08,16.39-2.7,2.63-24.45,4.39-30.2,4.69-26.44,1.36-51.02-.92-77.23-1.54-8.32-.2-37.46,6.68-39.55-5-2.1-11.76,6.85-12.14,15.89-13.5,29.34-4.39,62.47-2.79,92.16-3.35Z"/><path class="cls-3" d="M1572.35,231.61c0,42.65-34.61,77.22-77.3,77.22s-77.3-34.57-77.3-77.22,34.61-77.22,77.3-77.22,77.3,34.57,77.3,77.22ZM1446.66,189.82c-20.35,19.43-21.91,61.93,1.36,80.87,27.5,22.39,48.26,23.2,77.55,4.38,11.71-7.52,17.91-11.25,22.82-24.91,18.65-51.88-17.56-95.07-70.9-76.33-7.14,2.51-25.76,11.14-30.84,15.99Z"/><path class="cls-3" d="M1564.72,116.94c-2.12,3.21-4.62,7.17-6.91,10.51-3.44,5.02-14,22.2-18.14,24.07-9.57,4.33-16.83-2.3-13.9-11.93,8.72-16.51,20.62-31.11,30.11-47.1,6.39-10.77,38.59-72.17,44.47-74.9,8.06-3.74,17.8,7.76,13.84,15.69-16.71,27.76-31.62,56.6-49.48,83.66Z"/><path class="cls-3" d="M1493.35,321.75c5.2,5.39,5.16,38.49,5.96,48.18,1.91,23.08,5.59,51.88,4.8,74.93-.33,9.43-5.35,23.22-16.54,15.73-11.96-8.01-7.89-62.83-8.4-77.88-.4-11.94-7.5-50.84.86-59.54,2.78-2.89,10.32-4.53,13.32-1.43Z"/><path class="cls-3" d="M1641.38,202.69c-7.79,4.58-21.6,16.7-30.18,20.31-14.11,5.92-28.07,2.6-21.93-14.6,10.78-6.19,21.25-12.97,31.86-19.52,6.58-4.05,12.42-6.76,17.64-9.91,14.62-8.82,41.41-31.45,57.95-28.26,5.26,1.01,9.12,6,8.04,11.43-2.06,10.34-15.18,11.81-22.36,16.38-14.39,9.15-26.73,15.75-41.03,24.17Z"/><path class="cls-3" d="M1314.25,410.78c-11.75-9.92,21.36-36.45,27.04-42.71,16.53-18.23,32.54-37.49,50.48-54.17,6.13-5.7,18.47-13.65,25.01-4.64,8.32,11.46-13.23,24.25-20.39,31.28-20.92,20.57-42,41.05-62.46,62.39-3.29,3.43-5.33,9.67-10.07,10.15-1.69.17-8.46-1.34-9.61-2.3Z"/><path class="cls-3" d="M1388.42,35.3c2.68-.91,11.15-.84,13.56.63,1.3.79,14.82,22.07,16.81,25.4,8.86,14.79,31.38,57.61,35.56,72.74,3.84,13.9-7.57,18.96-17.36,11.84-1.77-1.28-10.03-14.38-11.88-17.48-7.35-12.28-12.37-27.29-18.79-39.96-4.86-9.6-19.61-30.86-21.98-38.71-1.12-3.72-.12-13.04,4.08-14.46Z"/><path class="cls-3" d="M1493.24.47c6.84-2.08,13.13,2.98,13.5,9.7-4.03,37.13,5.85,79.42,1.74,115.7-1.47,13.02-10.99,22.93-19.82,8.79.6-9.77-1.53-19.88-2.03-29.18-1.31-24.75-2.91-67.38-.2-91.55.5-4.41,2.03-12.02,6.8-13.47Z"/><path class="cls-3" d="M1527.25,307.05c7.68-4.38,14.76,1.31,17.5,8.32,7.04,18,9.64,45.43,13.87,65.05,2.56,11.87,11.55,31.07,8.25,42.36-3.21,10.97-20.19,7.72-23.09-1.84-.96-3.16.08-7.06-.83-10.18-6.45-22.11-9.16-39.98-12.87-62.38-1.38-8.35-11.02-36.65-2.83-41.33Z"/><path class="cls-3" d="M1350.18,233.71c6.7-.2,28.01-.18,32.62,3.04,7.97,5.57,2.18,16.26-5.69,18.45-32.18-3.64-69.77,5.56-101.02,1.92-8.25-.96-15.8-8.12-10.21-15.76,5.6-7.66,39.94-3.87,50.73-4.38,10.47-.5,22.94-2.96,33.57-3.27Z"/><path class="cls-3" d="M1640.75,108.44c2.71,16.42-6.68,21.8-17.51,31.15-14.21,12.28-31.47,22.37-44.98,35.79-47.26,2.79,11.22-35.46,22.95-44.96s20.61-25.89,39.54-21.99Z"/><path class="cls-3" d="M1368.4,95.83c10.29-1.42,34.62,32.3,40.58,41.38,7.83,11.95,30.56,46.82-.75,37.44l-34.85-49.59c-11.96-4.7-23.11-26.72-4.97-29.23Z"/><path class="cls-3" d="M1312.39,294.25l72.22-20.56c12.38-1.91,19.86,7.63,9.79,17.16-6.31,5.98-35.22,13.02-45.35,15.24-13.56,2.98-50.82,13.94-36.66-11.84Z"/><path class="cls-3" d="M1610.58,333.1c5.83,6.16,10.79,9.77,7.75,19.95-1.74,5.83-13.16,11.89-18.31,6.2l-39.85-50.09c-7.77-14.76,6.75-19.46,18.02-10.67,5.11,3.99,4.62,7.7,7.58,10.77,7.42,7.68,17.4,16.01,24.82,23.83Z"/><path class="cls-3" d="M1624.81,307.83c-.74-.42-1.16-2.92-2.54-3.76-6.84-4.16-38.43-13.93-29.44-25.98,3.49-4.68,9.66-4.88,14.85-3.62,8.5,2.06,46.54,23.44,53.31,29.37,9.6,8.42,5.19,18.89-6.67,19.23-4.48.13-23.82-11.98-29.51-15.24Z"/><path class="cls-3" d="M1355.3,175.28c.44.25.74,1.93,2.19,2.75,4.92,2.8,26.02,11.57,28.03,13.82,6.51,7.31,4.62,20.45-6.85,20.74-3.98.1-20.5-8.02-25-10.56-1.23-.69-1.69-3.07-3.59-4.23-10.29-6.31-31.93-14.4-29.03-29.68,2.76-14.55,27.33,3.31,34.26,7.17Z"/><path class="cls-3" d="M1454.72,317.99c8.13-1.74,12.66,2.99,10.76,10.66-.9,3.62-19.63,38.88-22.26,42.15s-12.14,9.99-16.07,8.99c-21.39-5.45,15.81-46.92,19.89-56.56,1.84-2.45,4.68-4.59,7.69-5.24Z"/><path class="cls-3" d="M1505.56,196.94c-.57.4-2.03.03-3.08.83-2.24,1.72-3.51,7.06-5.44,8.78-.25.22-3.27,2.53-3.47,2.64-1.39.8-4.55,1.22-5.45,2.38-1.2,1.55-.62,4.63-1.23,6.58-.38,1.21-1.27,1.74-1.72,2.74-.81,1.81-.1,4.18-3.35,5.01-1.6.41-7.35-.18-9.33-.44-.9-.12-1.56-1.06-2.81-1.14-6.48-.42-5.99,3.09-7.87,7.25-.29.65-1.15,1.13-1.48,1.87-.72,1.61-.46,4.82-2.67,5.73-.55.23-5.07.01-5.86-.25-.93-.3-.87-.93-1.27-1.11-2.2-1-2.97.19-4.9.47-1.37.2-3.15-.26-4.33.13-1.48.49-2.67,4.02-1.77,5.5,1.09,1.78,8.01,3.71,10.35,3.07,4.05-1.11,10.34-8.49,15.78-10.44,3.63-1.3,8.8-.91,11.4-1.99,2.25-.94,3.63-5.3,5.75-7.09,3.32-2.81,11.87-4.01,13.03-7.03,2.27-5.86,1.66-9.94,7.33-14.45,1.99-1.59,6.74-3.3,7.56-5.25.96-2.28,1.02-5.57,1.93-8.14,2.84-8.06,10.26-13.99,18.09-7.51,5.15,4.26,6.56,9.6,6.76,16.13.06,1.89-1.94,11.16-2.8,12.86-1.32,2.6-3.5,2.68-5.79,4.26-6.44,4.44-3.52,4.59-3.15,10.76.49,8.03-4.39,9.71-11.03,11.89-.96.31-2.28.05-3.51.4-10.47,2.96-1.49,15.05-11.55,17.46-1.65.39-5.32.99-7.14,1.23-3.29.44-7.89-.64-10.87,1.96-2.31,2.01-1.2,8.22-3.95,10-.76.49-7.04,2.36-8.09,2.51-3.91.53-9.74.73-13.92,1.03-1.33.1-2.01-.99-3.84.18-4.02,2.57.18,6.86,3.41,7.62,2.57.6,9.07,1.7,11.6,1.8,7.88.3,9.6-5.87,15.37-9.72.95-.63,4.1-2.44,5.04-2.78,8.05-2.88,15.52,1.41,20.15-8.31,2.1-4.41,3.39-9.56,7.98-12.66s16.36-3.3,17.04-9.19c.96-8.25-1.9-13.68,2.76-21.78,3.58-6.21,10.4-5.96,15.83-9.84,3.23-2.3,3.65-8.12,3.77-11.9.04-1.39-.09-5.07-.18-6.56-.18-2.82-7.61-7.72-2.01-7.11.29.03,4.01,1.03,4.16,1.19.19.2.05,1.44.39,2.1,2.09,4.12,6.48,9.06,5.99,13.75-.18,1.73-1.23,3.31-1.2,4.44.07,2.67,2.13,1.74-.71,5.92-1.82,2.69-8.92,9.19-11.52,10.8-1.51.94-7.06-.42-6.74,3.9s3.04,10.28-.05,13.57c-2.16,2.3-2.2,2.1-3.11,3.88-.5.99-1.44,1.04-1.85,1.64s-.25,1.61-.69,2.23c-.34.47-8.85,6.17-9.47,6.43-.99.4-3.01.37-3.15.51-.22.21.12,1.34-.08,1.53-.7.7-5.04-1.47-7.24,3.67-2.6,6.08-4.84,10.49-8.4,16.16-.53.84-.31,2.22-.85,2.6-1.24.89-6.63,2.04-8.32,2.16-6.01.42-11.21-2.18-16.42,3.12-2.44,2.48-2.99,2.66-5.35,4.69-1.28,1.1-2.89,4.84-4.45,5.04-8.3,1.04-15.7.69-23.32-3.33-2.14-1.13-10.55-8.71-10.83-11.01-.11-.94-1.29-1.76-1.29-2.67-.02-2.33-.8-2.88.54-5.61.37-.76,2.98-4.07,3.55-4.54,2.36-1.95,13.11-3.47,16.29-3.41,4.83.09,8,3.19,11.24-1.71,3.56-5.39,2.6-8.02,10.23-9.86,5.32-1.28,8.09-.05,12.57-.22,6.14-.24,5.62-7.11,7.32-11.13,3.62-8.57,9.08-6.31,15.85-9.26,4.02-1.75,1.56-6.84,1.65-10.01s1.43-6.49,3.62-8.7c1.49-1.5,4.5-2.81,5.59-4.45.3-.46,3.04-7.14,3.07-7.55.08-1.29-1.99-6.8-3.01-7.54-1.39-1-4.3-1.83-5.34-.51-1.15,1.46-1.16,4.03-1.08,5.31.05.79.99,1.5,1.11,2.75.16,1.64.18,5.54-.28,7.03-1.19,3.88-8.62,5.21-10.29,7.57-2.39,3.38.19,9.77-3.72,13.57-.98.95-4.39,3.24-5.73,3.75-1.92.74-7.49,1.53-8.67,2.36-.24.17-1.75,3.82-2.86,5.08-7.57,8.6-16.56.69-24.29,7.52-3.47,3.07-4.86,7.29-10.13,8.84-4.68,1.37-15.38-2.22-18.03-6.34-.32-.49-2.51-7.1-2.53-7.58-.03-1.22.9-1.75,1.09-2.75.3-1.58-.26-2.54.66-4.36,3.19-6.33,12.07-1.71,17.2-5.68,2.33-1.8,3.35-8.31,5.13-10.49,3.19-3.92,16.33-.35,20.5-2.66,3.13-1.74,1.65-7.71,3.5-10.72,2.61-4.24,8.82-5.14,11.88-9.32,2.24-3.07,1.82-4.91,2.69-7.91.35-1.19,2.11-2.64,2.08-4.06-.02-.95-2.26-3.41-3.35-2.81-.85.47-4.06,5.83-4.69,7.05-.54,1.02-.17,1.96-1.11,3.35-1.94,2.87-6.36,1.78-7.42,3.46-.81,1.29-1.23,6.62-1.95,8.39-.07.18-2.48,2.73-2.68,2.87-4.22,3.09-11.79-.16-17.04,4.74-2.69,2.51-3.86,5.63-8.04,6.48-7.79,1.57-9.73-7.96-8.91-13.93.54-3.93,4.87-8.74,8.14-10.82,1.74-1.11,8.07-4.94,8.46-5.6,1.71-2.84-3.72-16.34,1.17-16.03,2.64.16,3.75,4.2,3.69,6.42,0,.34,1.61,13.73,1.48,14.04-.15.35-4.24,4.54-4.59,4.7-1.49.67-4.67-.21-7.01,1.9-.91.82-.6,1.99-1.11,2.8-.41.66-1.77,1.08-2.49,1.97-1.15,1.42-3.39,5.41-.73,6.34,4.21,1.46,8.3-4.9,11.97-6.82,2.1-1.1,8.07-2.19,8.75-2.68.45-.33,3-7.98,4.83-9.96,2.19-2.36,5.99-2.85,7.41-4.02.49-.4,2.62-5.47,3.6-6.75,4.3-5.64,15.6-7.68,19.1-.3.58,1.23,2.08,6.17,1.99,7.41-.15,2.07-1.86,3.55-2.5,5.35-.37,1.04-.24,3.88-.94,4.37Z"/></g><rect class="cls-1" y="69.68" width="3102.43" height="407.21"/><path class="cls-4" d="M297.76,394.92c0,5.33-15.83,7.99-47.47,7.99s-47.47-2.66-47.47-7.99v-108.1h-65.8v108.1c0,5.33-15.83,7.99-47.47,7.99s-47.47-2.66-47.47-7.99V83.31c0-6.58,15.82-9.87,47.47-9.87s47.47,3.29,47.47,9.87v110.45h65.8v-109.51c0-4.38,7.83-7.52,23.5-9.4,8.14-.62,16.13-.94,23.97-.94l23.97.94c15.66,1.88,23.5,5.02,23.5,9.4v310.67Z"/><path class="cls-4" d="M362.85,375.18c-19.59-21.62-29.38-51.54-29.38-89.77s9.79-68.15,29.38-89.77c19.58-21.62,45.98-32.43,79.2-32.43s59.53,10.81,78.96,32.43c19.42,21.62,29.14,51.55,29.14,89.77s-9.72,68.15-29.14,89.77c-19.43,21.62-45.75,32.43-78.96,32.43s-59.62-10.81-79.2-32.43ZM416.66,143.47c0,1.88-10.89,2.82-32.67,2.82s-32.67-.78-32.67-2.35v-65.8c0-2.82,10.88-4.23,32.67-4.23s32.67.79,32.67,2.35v67.21ZM442.28,241.7c-17.71,0-26.55,14.42-26.55,43.24s8.85,43.24,26.55,43.24,26.55-14.41,26.55-43.24-8.86-43.24-26.55-43.24ZM524.76,143.47c0,1.88-10.89,2.82-32.66,2.82s-32.67-.78-32.67-2.35v-65.8c0-2.82,10.88-4.23,32.67-4.23s32.66.79,32.66,2.35v67.21Z"/><path class="cls-4" d="M566.59,360.61c0-9.08,2.66-19.66,7.99-31.73,5.32-12.06,11.12-20.28,17.39-24.68,11.9,8.78,23.97,13.16,36.19,13.16l14.57-2.35c16.92-5.01,25.69-18.48,26.32-40.42v-119.85h-37.6c-5.33,0-9.09-6.73-11.28-20.21-.94-6.58-1.41-13.31-1.41-20.21s.47-13.63,1.41-20.21c2.19-13.47,5.95-20.21,11.28-20.21h111.86c6.26,0,10.96,1.81,14.1,5.4,3.13,3.61,4.7,7.92,4.7,12.93v221.84c0,30.71-10.27,54.05-30.79,70.03-20.53,15.98-45.12,23.97-73.79,23.97s-51-4.23-66.97-12.69c-15.98-8.46-23.97-20.05-23.97-34.78Z"/><path class="cls-4" d="M815.21,288.23c5.95,4.7,16.21,11.13,30.79,19.27,14.57,8.15,28.51,12.22,41.83,12.22s19.97-5.17,19.97-15.51c0-4.7-1.88-8.85-5.64-12.45-3.76-3.6-10.66-7.76-20.68-12.46-10.03-4.7-17.55-8.38-22.56-11.04-5.02-2.66-11.68-7.05-19.97-13.16-8.31-6.11-14.65-12.46-19.04-19.04-12.54-17.86-18.8-40.57-18.8-68.15s10.26-50.83,30.79-69.79c20.52-18.95,47.39-28.44,80.6-28.44,22.56,0,43.39,2.43,62.51,7.29,19.11,4.86,28.98,11.21,29.61,19.03v2.82c0,10.97-3.45,24.84-10.34,41.59-6.9,16.77-11.75,26.08-14.57,27.97-20.06-10.34-38-15.51-53.81-15.51s-23.74,5.64-23.74,16.92c0,6.9,5.79,13.01,17.39,18.33,2.5,1.26,6.11,2.98,10.81,5.17,4.7,2.2,10.1,4.78,16.21,7.75,6.11,2.98,12.69,6.74,19.74,11.28,7.05,4.55,14.64,10.58,22.79,18.09,16.6,15.67,24.91,36.35,24.91,62.04,0,33.53-9.25,60.95-27.73,82.25-18.49,21.31-47,32.27-85.54,32.9-18.8,0-35.8-1.57-51-4.7-15.2-3.13-28.43-9.24-39.71-18.33-11.28-9.08-16.92-20.05-16.92-32.9s2.35-25.62,7.05-38.31c4.7-12.69,9.71-21.07,15.04-25.15Z"/><path class="cls-4" d="M1146.56,396.33c0,4.7-14.73,7.05-44.18,7.05l-26.32-1.41c-15.67-1.25-23.5-3.44-23.5-6.58V80.02c0-5.32,15.66-7.99,47-7.99s47,2.67,47,7.99v120.32l57.34-120.32c2.19-4.38,14.72-6.58,37.6-6.58,41.67,0,63.6,3.61,65.8,10.81,0,.63-.16,1.26-.47,1.88l-81.78,147.58,94.94,131.13c0,.63-2.98,3.29-8.93,7.99-14.42,12.54-31.34,22.41-50.76,29.61-5.96,2.19-11.91,3.29-17.86,3.29l-11.28-.94c-10.03-2.5-17.86-8.93-23.5-19.27l-53.58-102.46h-7.52v113.27Z"/><path class="cls-4" d="M1692.67,375.18V82.84c0-6.58,15.9-9.87,47.71-9.87s47.71,3.29,47.71,9.87v230.3h72.38c5.64,0,9.55,7.37,11.75,22.09.94,7.21,1.41,14.57,1.41,22.09s-.47,15.2-1.41,23.03c-2.51,15.04-6.58,22.56-12.22,22.56h-144.76c-6.9,0-12.38-2.82-16.45-8.46-4.08-5.64-6.11-12.06-6.11-19.27Z"/><path class="cls-4" d="M2054.57,204.57c5.95,0,8.93,10.97,8.93,32.9,0,6.58-.71,14.33-2.11,23.27-1.41,8.93-4,13.4-7.76,13.4h-59.69v47h86.48c5.32,0,8.93,6.9,10.81,20.68.94,5.96,1.41,12.3,1.41,19.04s-.94,15.44-2.82,26.08c-1.88,10.66-5.02,15.98-9.4,15.98h-160.74c-11.91,0-17.86-4.85-17.86-14.57V86.13c0-8.14,3.6-12.22,10.81-12.22h168.26c6.58,0,9.87,13.87,9.87,41.6s-3.29,41.59-9.87,41.59h-86.95v47.47h60.63Z"/><path class="cls-4" d="M2391.09,392.57c0,6.58-14.73,9.87-44.18,9.87s-45.44-2.35-47.94-7.05l-78.49-146.64v146.17c0,5.64-14.5,8.46-43.48,8.46s-43.47-2.82-43.47-8.46V80.49c0-4.7,12.37-7.05,37.13-7.05,9.71,0,21.07.87,34.08,2.59,13,1.73,20.92,4.93,23.74,9.63l75.2,144.76V82.84c0-5.95,14.57-8.93,43.71-8.93s43.71,2.98,43.71,8.93v309.73Z"/><path class="cls-4" d="M2526.44,381.29V99.29c0-7.83,1.95-14.02,5.88-18.56,3.91-4.54,9-6.81,15.28-6.81h78.49c49.82,0,87.66,12.54,113.5,37.6,25.85,25.07,38.78,64.55,38.78,118.44,0,115.31-49.2,172.96-147.58,172.96h-80.37c-15.98,0-23.97-7.2-23.97-21.62ZM2616.68,163.21v140.53c0,6.58.47,10.74,1.41,12.46.94,1.73,3.76,2.58,8.46,2.58,17.23,0,30.31-6.42,39.25-19.27,8.93-12.84,13.39-34.23,13.39-64.16s-4.63-49.42-13.87-58.51c-9.25-9.08-23.9-13.63-43.94-13.63h-4.7Z"/><path class="cls-4" d="M2909.96,396.33c0,4.7-14.73,7.05-44.18,7.05l-26.32-1.41c-15.67-1.25-23.5-3.44-23.5-6.58V80.02c0-5.32,15.66-7.99,47-7.99s47,2.67,47,7.99v120.32l57.34-120.32c2.19-4.38,14.72-6.58,37.6-6.58,41.67,0,63.6,3.61,65.8,10.81,0,.63-.16,1.26-.47,1.88l-81.78,147.58,94.94,131.13c0,.63-2.98,3.29-8.93,7.99-14.42,12.54-31.34,22.41-50.76,29.61-5.96,2.19-11.91,3.29-17.86,3.29l-11.28-.94c-10.03-2.5-17.86-8.93-23.5-19.27l-53.58-102.46h-7.52v113.27Z"/><path class="cls-2" d="M1692.68,236.68s2.5-.16,6.65-.05c2.24.06,6.2.19,10.77,1.1,1.05.21,2.15.46,3.42,1.15.7.38,2.37,1.33,3.58,3.32,1.06,1.75,1.21,3.4,1.29,4.44.15,1.91-.21,3.36-.42,4.16-.38,1.45-.89,3.42-2.51,4.9-1.07.98-2.21,1.38-3.39,1.73-4.66,1.38-8.32,1.61-12.52,2.11-5.97.71-6.86.7-6.86.7v-23.57Z"/></svg>